/* XPM */
static char * kuser_xpm[] = {
"32 32 10 1",
" 	c None",
".	c black",
"X	c yellow",
"o	c #848284",
"O	c #c6c3c6",
"+	c #000084",
"@	c cyan",
"#	c blue",
"$	c #848200",
"%	c magenta",
"          ..........            ",
"         ............           ",
"        ..XXXXXXXXXX........    ",
"       ..XXXXXXXXXXX.........   ",
"      ..XXXXXX................  ",
"     ..XXXXXX.................  ",
"    ..XXXXXX...    .....o.....  ",
"    ..XXXXXX..      ....oo....  ",
"   ...XXXXX...  oo....oooooo..  ",
"   ...XXXXX...  oo.....oooo...  ",
"......XXXX...        ...oo....  ",
"......XXXX..          ..oo..... ",
"OOOOOOXXXX..      OO...oooooo...",
"OOOOOOXXXX..      OO..oooooooo..",
"++++++XXXX..        ..oooooo... ",
"++++++XXXX..       ...oooooo..  ",
"+++@@#XXXX..  oo....oooooooo..  ",
"++@@##XXXX... oo.....ooooooo..  ",
"++@@####$XX... .......oo.....   ",
"++@#####$$XX..  ......oo....    ",
"#########$XXX... .....oo...     ",
"##########XXXX..  ....o...      ",
"OOOOOOOOOOOOOX%%%% ...@@oo..    ",
"OOOOOOOOOOOOOO%%%%  ..@@o...    ",
"...............%%%%%%%...  ...  ",
"................%%%%%%..    ..  ",
"                ....            ",
"                ....            ",
"OOOOOOOOOOOOOOOO....            ",
"OOOOOOOOOOOOOOOO....            ",
"....................            ",
"....................            "};
