/* XPM */
static char * mini_kuser_xpm[] = {
"16 16 10 1",
" 	c None",
".	c black",
"X	c yellow",
"o	c #848284",
"O	c #c6c3c6",
"+	c #000084",
"@	c cyan",
"#	c blue",
"$	c #848200",
"%	c magenta",
"     .....      ",
"    .XXXXX....  ",
"   .XXX........ ",
"  .XXX.   ..o.. ",
"  .XXX. o..ooo. ",
"...XX.     .o.. ",
"OOOXX.   O.oooo.",
"+++XX.    .ooo. ",
"+@#XX. o..oooo. ",
"+@##$X. ...o..  ",
"#####XX. ..o.   ",
"OOOOOOO%% .@o.  ",
"........%%%.  . ",
"        ..      ",
"OOOOOOOO..      ",
"..........      "};
